<svg width="66" height="66" viewBox="0 0 66 66" fill="none" xmlns="http://www.w3.org/2000/svg">
    <path fill-rule="evenodd" clip-rule="evenodd" d="M37.0095 63.5823C34.9124 65.7071 31.5372 65.7229 28.8967 63.0452L0 33.7467L2.9873 30.7173L32.1174 60.2515C32.702 60.8414 33.3258 60.792 33.7918 60.3189C34.2966 59.808 34.2939 59.2268 33.7265 58.6218L4.59623 29.0862L7.58371 26.057L36.4809 55.3557C38.992 58.1642 39.1062 61.4553 37.0095 63.5823Z" fill="#F25A19"/>
    <path fill-rule="evenodd" clip-rule="evenodd" d="M17.4144 23.7704C16.6765 23.0211 16.1718 22.9036 15.8227 23.2574L14.9869 24.1041L26.9375 36.2213L27.773 35.3746C28.1221 35.0208 28.0447 34.5478 27.2687 33.7606L17.4144 23.7704ZM47.2404 52.4538C46.7744 52.9254 43.7507 50.4731 42.3923 49.0954L32.156 38.7165C31.5745 38.1265 30.8718 37.8256 30.4447 38.2577L29.6952 39.0177L45.0933 54.6302L42.1055 57.6594L9.01157 24.1041L12.9491 20.1128C14.4639 18.5771 17.1425 17.435 20.4429 20.7823L30.0573 30.5301C31.2617 31.7512 31.4107 33.1749 31.2941 34.7104C32.7693 34.5525 34.1732 34.7036 35.4158 35.9629L45.069 45.7508C46.7001 47.4038 48.367 48.5556 49.8045 49.6194L49.9196 49.7362L47.2404 52.4538Z" fill="#F25A19"/>
    <path fill-rule="evenodd" clip-rule="evenodd" d="M56.6638 43.0637L55.3408 42.2739C55.8061 43.6115 55.2791 44.731 54.4638 45.5579C52.4059 47.6444 49.6716 47.5496 46.7588 44.5966L22.0585 19.5523C19.4571 16.9151 19.4321 13.4641 21.5285 11.338C23.6252 9.21235 27.0285 9.23642 29.6303 11.8751L38.5331 20.9024L35.5454 23.9311L26.3287 14.5863C25.7825 13.9587 25.1359 13.9065 24.5925 14.4573C24.1261 14.9298 24.1128 15.6516 24.7197 16.2175L50.2778 42.1319C50.837 42.7463 51.5349 42.8246 52.0395 42.3123C52.5445 41.8007 52.4675 41.0938 51.8851 40.5018L41.7486 30.2253L41.0608 30.9224L38.3034 28.1259L41.9804 24.3968L58.5275 41.1743L56.6638 43.0637Z" fill="#F25A19"/>
    <path fill-rule="evenodd" clip-rule="evenodd" d="M59.7947 39.8465L26.7009 6.29072L32.9061 0L36.1231 3.26354L32.9061 6.52358L43.9379 17.7095L46.006 15.6121L48.9933 18.6415L46.9255 20.7389L59.5652 33.5545L62.7825 30.2924L66 33.5545L59.7947 39.8465Z" fill="#F25A19"/>
</svg>
